<svg width="18" height="18" fill="none" xmlns="http://www.w3.org/2000/svg"><path d="M2.402 0h3.196A2.4 2.4 0 0 1 8 2.402v3.197A2.394 2.394 0 0 1 5.598 8H2.402A2.4 2.4 0 0 1 0 5.6V2.401A2.406 2.406 0 0 1 2.402 0Zm0 10h3.196A2.4 2.4 0 0 1 8 12.402v3.197A2.394 2.394 0 0 1 5.598 18H2.402A2.4 2.4 0 0 1 0 15.6v-3.198A2.406 2.406 0 0 1 2.402 10ZM15.598 0h-3.196A2.4 2.4 0 0 0 10 2.402v3.197A2.394 2.394 0 0 0 12.402 8h3.196A2.4 2.4 0 0 0 18 5.6V2.401A2.406 2.406 0 0 0 15.598 0Zm-3.196 10h3.196A2.406 2.406 0 0 1 18 12.402v3.197A2.4 2.4 0 0 1 15.598 18h-3.196A2.393 2.393 0 0 1 10 15.6v-3.198A2.4 2.4 0 0 1 12.402 10Z" fill="#181A25"/></svg>