<svg width="20" height="20" viewBox="0 0 20 20" fill="none" xmlns="http://www.w3.org/2000/svg">
<path fill-rule="evenodd" clip-rule="evenodd" d="M8.07175 7.72675H10.8573V9.11425C11.2585 8.31625 12.2875 7.59925 13.8333 7.59925C16.7965 7.59925 17.5 9.18775 17.5 12.1023V17.5H14.5V12.766C14.5 11.1062 14.0988 10.1702 13.0773 10.1702C11.6605 10.1702 11.0717 11.179 11.0717 12.7653V17.5H8.07175V7.72675ZM2.9275 17.3725H5.9275V7.59925H2.9275V17.3725ZM6.35725 4.4125C6.35736 4.66396 6.30749 4.91293 6.21054 5.14494C6.11359 5.37695 5.97149 5.58738 5.7925 5.764C5.4298 6.12447 4.93886 6.32624 4.4275 6.325C3.91704 6.32466 3.42723 6.1234 3.064 5.76475C2.88566 5.58753 2.74404 5.37687 2.64726 5.14482C2.55048 4.91278 2.50043 4.66392 2.5 4.4125C2.5 3.90475 2.7025 3.41875 3.06475 3.06025C3.42766 2.70112 3.91768 2.49978 4.42825 2.5C4.93975 2.5 5.43025 2.70175 5.7925 3.06025C6.154 3.41875 6.35725 3.90475 6.35725 4.4125Z" fill="#484848"/>
</svg>
