<svg xmlns="http://www.w3.org/2000/svg" xmlns:xlink="http://www.w3.org/1999/xlink"><symbol viewBox="0 0 18 18" fill="currentColor" id="apps"><path d="M2.402 0h3.196A2.4 2.4 0 0 1 8 2.402v3.197A2.394 2.394 0 0 1 5.598 8H2.402A2.4 2.4 0 0 1 0 5.6V2.401A2.406 2.406 0 0 1 2.402 0Zm0 10h3.196A2.4 2.4 0 0 1 8 12.402v3.197A2.394 2.394 0 0 1 5.598 18H2.402A2.4 2.4 0 0 1 0 15.6v-3.198A2.406 2.406 0 0 1 2.402 10ZM15.598 0h-3.196A2.4 2.4 0 0 0 10 2.402v3.197A2.394 2.394 0 0 0 12.402 8h3.196A2.4 2.4 0 0 0 18 5.6V2.401A2.406 2.406 0 0 0 15.598 0Zm-3.196 10h3.196A2.406 2.406 0 0 1 18 12.402v3.197A2.4 2.4 0 0 1 15.598 18h-3.196A2.393 2.393 0 0 1 10 15.6v-3.198A2.4 2.4 0 0 1 12.402 10Z"/></symbol><symbol viewBox="0 0 18 18" fill="currentColor" id="arrow-left"><path fill-rule="evenodd" clip-rule="evenodd" d="M10.48 3.52a.75.75 0 0 0-1.06 0L4.47 8.47a.75.75 0 0 0 0 1.06l4.95 4.95a.75.75 0 1 0 1.06-1.06L6.06 9l4.42-4.42a.75.75 0 0 0 0-1.06Z"/></symbol><symbol viewBox="0 0 18 18" fill="currentColor" id="arrow-right"><path fill-rule="evenodd" clip-rule="evenodd" d="M7.47 3.47a.75.75 0 0 1 1.06 0l4.95 4.95a.75.75 0 0 1 0 1.06l-4.95 4.95a.75.75 0 0 1-1.06-1.06l4.42-4.42-4.42-4.42a.75.75 0 0 1 0-1.06Z"/></symbol><symbol viewBox="0 0 18 18" fill="currentColor" id="arrow-square"><path fill-rule="evenodd" clip-rule="evenodd" d="M5 0a5 5 0 0 0-5 5v8a5 5 0 0 0 5 5h8a5 5 0 0 0 5-5V5a5 5 0 0 0-5-5H5Zm3.153 4.97a.75.75 0 0 0-1.06 1.06L10.063 9l-2.97 2.97a.75.75 0 1 0 1.06 1.06l3.5-3.5a.75.75 0 0 0 0-1.06l-3.5-3.5Z"/></symbol><symbol viewBox="0 0 18 18" fill="currentColor" id="linkedin"><path fill-rule="evenodd" clip-rule="evenodd" d="M8.072 7.727h2.785v1.387c.402-.798 1.43-1.515 2.976-1.515 2.964 0 3.667 1.589 3.667 4.503V17.5h-3v-4.734c0-1.66-.401-2.596-1.423-2.596-1.416 0-2.005 1.009-2.005 2.595V17.5h-3V7.727Zm-5.144 9.645h3V7.6h-3v9.773Zm3.43-12.96a1.898 1.898 0 0 1-.565 1.352 1.942 1.942 0 0 1-2.729 0A1.911 1.911 0 0 1 2.5 4.413a1.9 1.9 0 0 1 .565-1.352 1.937 1.937 0 0 1 2.728 0c.361.359.564.845.564 1.352Z"/></symbol></svg>